<?xml version="1.0" standalone="no"?>
<!DOCTYPE svg PUBLIC "-//W3C//DTD SVG 20010904//EN"
 "http://www.w3.org/TR/2001/REC-SVG-20010904/DTD/svg10.dtd">
<svg version="1.0" xmlns="http://www.w3.org/2000/svg"
 width="310.000000pt" height="310.000000pt" viewBox="0 0 310.000000 310.000000"
 preserveAspectRatio="xMidYMid meet">
<metadata>
Created by potrace 1.11, written by Peter Selinger 2001-2013
</metadata>
<g transform="translate(0.000000,310.000000) scale(0.100000,-0.100000)"
fill="#000000" stroke="none">
<path d="M1965 2855 c-24 -23 -25 -30 -25 -150 0 -123 1 -126 26 -150 25 -24
34 -25 144 -25 110 0 119 1 144 25 26 24 26 26 26 154 0 128 0 130 -26 150
-24 19 -40 21 -146 21 -113 0 -120 -1 -143 -25z"/>
<path d="M1664 2413 c-12 -2 -34 -18 -50 -34 l-29 -30 -3 -177 c-4 -198 3
-240 47 -271 27 -19 44 -21 226 -21 l197 0 34 34 34 34 0 200 0 200 -29 30
c-17 16 -44 32 -62 36 -34 6 -330 6 -365 -1z"/>
<path d="M755 2132 c-64 -40 -65 -44 -65 -336 0 -146 4 -267 8 -270 4 -2 22
24 40 58 60 116 154 212 280 287 31 18 32 21 32 84 0 42 4 65 12 65 6 0 102
-52 213 -115 111 -63 205 -115 208 -115 4 0 7 63 7 140 l0 140 -34 38 -34 37
-319 3 c-296 2 -320 1 -348 -16z"/>
<path d="M1385 1727 c-353 -209 -336 -203 -333 -114 1 26 -2 50 -6 54 -12 13
-111 -28 -181 -75 -38 -26 -91 -73 -118 -104 -55 -64 -56 -83 -4 -120 31 -22
39 -23 312 -26 334 -4 357 -2 402 43 l33 33 0 181 c0 100 -3 181 -7 181 -5 0
-48 -24 -98 -53z"/>
<path d="M1661 1722 c-19 -9 -44 -30 -55 -45 -20 -27 -21 -41 -21 -347 0 -440
-30 -410 405 -410 426 0 404 -19 408 348 2 141 0 268 -3 282 l-7 25 -19 -25
c-10 -14 -19 -29 -19 -34 0 -4 -16 -35 -36 -68 -48 -79 -159 -188 -229 -224
l-55 -29 0 -67 c0 -41 -4 -68 -10 -68 -6 0 -77 38 -158 83 -81 46 -171 97
-199 113 -29 16 -53 32 -53 35 0 4 48 35 108 69 59 35 148 88 199 118 51 29
96 51 101 48 5 -3 7 -26 4 -51 -7 -68 6 -78 73 -55 30 10 75 31 101 46 65 38
184 160 184 188 0 29 -37 64 -81 76 -19 6 -162 10 -319 10 -252 0 -289 -2
-319 -18z"/>
<path d="M962 1166 l-37 -34 -3 -189 c-3 -208 0 -222 57 -260 32 -22 43 -23
210 -23 157 0 179 2 208 20 57 34 63 59 63 255 0 265 0 265 -274 265 l-186 0
-38 -34z"/>
<path d="M784 529 c-17 -18 -19 -37 -19 -146 0 -124 0 -125 28 -149 26 -22 36
-24 143 -24 109 0 116 1 139 25 24 23 25 30 25 147 0 173 5 168 -164 168 -122
0 -134 -2 -152 -21z"/>
</g>
</svg>
